<svg xmlns="http://www.w3.org/2000/svg" width="500" height="500" viewBox="0 0 500 500"><defs><style>.a{fill:#2a5342;}</style></defs><title>crypta_emblem</title><path class="a" d="M425,85a40,40,0,0,1,40,40V375a40,40,0,0,1-40,40H75a40,40,0,0,1-40-40V125A40,40,0,0,1,75,85H425m0-35H75A75,75,0,0,0,0,125V375a75,75,0,0,0,75,75H425a75,75,0,0,0,75-75V125a75,75,0,0,0-75-75Z"/><path class="a" d="M340,185a15,15,0,0,1,15,15V300a15,15,0,0,1-15,15H140a15,15,0,0,1-15-15V200a15,15,0,0,1,15-15H340m0-35H140a50,50,0,0,0-50,50V300a50,50,0,0,0,50,50H340a50,50,0,0,0,50-50V200a50,50,0,0,0-50-50Z"/><circle class="a" cx="189.98" cy="250" r="37.5"/><rect class="a" x="354.99" y="192.5" width="65" height="40" rx="17.5"/><rect class="a" x="354.99" y="267.5" width="65" height="40" rx="17.5"/></svg>