<?xml version="1.0" standalone="no"?>
<!DOCTYPE svg PUBLIC "-//W3C//DTD SVG 20010904//EN"
 "http://www.w3.org/TR/2001/REC-SVG-20010904/DTD/svg10.dtd">
<svg version="1.0" xmlns="http://www.w3.org/2000/svg"
 width="700.000000pt" height="700.000000pt" viewBox="0 0 700.000000 700.000000"
 preserveAspectRatio="xMidYMid meet">
<metadata>
Created by potrace 1.11, written by Peter Selinger 2001-2013
</metadata>
<g transform="translate(0.000000,700.000000) scale(0.100000,-0.100000)"
fill="#000000" stroke="none">
<path d="M939 6296 c-2 -2 -25 -6 -50 -9 -124 -15 -299 -82 -416 -160 -195
-129 -347 -330 -422 -554 -52 -155 -50 -88 -50 -2078 1 -1470 4 -1865 14
-1922 39 -215 140 -410 294 -564 142 -142 318 -239 516 -285 77 -18 176 -19
2660 -19 1419 0 2601 3 2626 7 262 38 526 200 682 416 92 128 136 222 179 382
l23 85 0 1885 c0 1037 -4 1909 -8 1937 -17 108 -63 240 -119 341 -101 184
-270 345 -453 432 -122 59 -190 79 -325 100 -52 8 -5142 14 -5151 6z m5131
-500 c166 -40 305 -147 376 -291 68 -136 63 -5 63 -2000 0 -1202 -3 -1828 -10
-1865 -30 -158 -145 -310 -292 -384 -138 -70 69 -65 -2707 -66 -2510 0 -2516
0 -2590 21 -166 45 -291 148 -361 295 -62 129 -58 1 -58 1989 0 1238 3 1836
10 1870 6 28 28 87 50 132 68 143 203 254 359 294 60 16 249 17 2585 18 2058
0 2530 -2 2575 -13z"/>
<path d="M1869 4896 c-2 -2 -23 -6 -47 -10 -61 -8 -167 -52 -242 -101 -154
-99 -261 -253 -304 -436 -21 -91 -23 -1576 -2 -1684 51 -257 237 -458 501
-541 58 -18 118 -19 1580 -19 1417 0 1524 1 1583 18 113 31 237 103 322 187
84 83 166 236 184 344 3 16 8 31 11 34 3 4 56 7 118 7 159 2 226 35 278 135
19 36 24 63 26 132 2 106 -14 162 -64 213 -59 61 -110 78 -238 79 l-110 2 0
244 0 245 105 1 c119 1 169 14 222 58 54 46 81 106 86 197 8 139 -36 227 -140
280 -37 19 -60 22 -164 23 l-121 1 -12 55 c-59 254 -253 449 -518 520 -64 18
-150 19 -1559 19 -820 1 -1493 -1 -1495 -3z m2969 -496 c28 -7 94 -75 112
-115 19 -43 20 -67 20 -777 0 -502 -4 -746 -11 -773 -14 -50 -84 -120 -136
-134 -53 -15 -2873 -15 -2926 0 -51 14 -103 61 -127 116 -19 44 -20 67 -20
785 0 807 -2 778 58 842 15 15 45 37 67 47 38 17 107 18 1495 15 800 -2 1461
-4 1468 -6z"/>
<path d="M2605 4022 c-100 -12 -218 -63 -293 -127 -29 -25 -94 -110 -119 -155
-26 -48 -53 -147 -56 -211 -4 -56 13 -162 33 -219 37 -100 139 -216 238 -268
213 -113 455 -78 622 90 46 46 109 138 109 161 0 4 7 20 15 35 14 28 30 128
29 187 -1 123 -61 261 -154 354 -110 109 -281 171 -424 153z"/>
</g>
</svg>
