<?xml version="1.0" standalone="no"?>
<!DOCTYPE svg PUBLIC "-//W3C//DTD SVG 20010904//EN"
 "http://www.w3.org/TR/2001/REC-SVG-20010904/DTD/svg10.dtd">
<svg version="1.0" xmlns="http://www.w3.org/2000/svg"
 width="700.000000pt" height="700.000000pt" viewBox="0 0 700.000000 700.000000"
 preserveAspectRatio="xMidYMid meet">
<metadata>
Created by potrace 1.11, written by Peter Selinger 2001-2013
</metadata>
<g transform="translate(0.000000,700.000000) scale(0.100000,-0.100000)"
fill="#000000" stroke="none">
<path d="M1450 6989 c-173 -20 -361 -75 -525 -154 -508 -246 -854 -736 -915
-1297 -14 -133 -14 -3948 0 -4073 45 -390 205 -719 482 -993 236 -234 525
-383 871 -449 86 -17 218 -18 2137 -18 2269 0 2093 -5 2328 65 533 158 952
580 1106 1113 65 225 61 61 61 2312 0 2187 2 2079 -51 2283 -170 655 -731
1138 -1406 1211 -118 13 -3974 13 -4088 0z m1092 -2078 c328 -57 619 -218 836
-464 106 -119 206 -283 257 -419 l18 -48 1236 -2 1236 -3 0 -475 0 -475 -237
-3 -238 -2 0 -475 0 -475 -480 0 -480 0 0 475 0 475 -518 0 -518 0 -32 -77
c-151 -370 -478 -671 -872 -802 -159 -54 -309 -74 -490 -68 -289 11 -519 85
-758 244 -99 66 -262 219 -331 311 -376 501 -396 1153 -52 1672 65 99 227 270
319 339 319 239 719 337 1104 272z"/>
<path d="M2221 3969 c-173 -29 -329 -176 -376 -354 -84 -323 201 -636 532
-585 179 28 336 165 387 339 22 76 21 194 -4 272 -50 164 -188 288 -357 324
-76 16 -103 17 -182 4z"/>
</g>
</svg>
